<svg width="1024" height="1024" xmlns="http://www.w3.org/2000/svg" p-id="14780" version="1.1" class="icon" t="1678289156916">

 <g>
  <title>Layer 1</title>
  <path stroke="null" id="svg_1" p-id="14781" fill="#ffffff" d="m678.91977,313.77068c0,-92.16 -74.86409,-167.12534 -166.9198,-167.12534c-92.05572,0 -166.9198,74.96534 -166.9198,167.12534c0,92.11733 74.86409,167.08266 166.9198,167.08266c92.05572,0 166.9198,-74.96533 166.9198,-167.08266zm61.22933,0c0,125.86666 -102.34529,228.39466 -228.14914,228.39466c-125.7615,0 -228.10679,-102.48533 -228.10679,-228.39466c0,-125.952 102.34529,-228.43734 228.10679,-228.43734c125.7615,0 228.14914,102.48534 228.14914,228.43734zm-184.87364,624.256c-14.18522,0.42666 -28.6245,0.64 -43.2755,0.64c-145.40908,0 -338.7515,-16.256 -338.7515,-156.58667c0,-157.44 254.99519,-157.44 338.7515,-157.44c145.40908,0 338.7515,16.21333 338.7515,156.58667c0,42.02666 -19.4782,98.73066 -112.50784,130.26133c-16.04836,5.54667 -33.36702,-3.2 -38.78705,-19.2a-30.31826,30.54933 0 0 0 19.1818,-38.784c63.6006,-21.58933 70.9261,-51.584 70.9261,-72.27733c0,-63.27467 -93.41073,-95.36 -277.56451,-95.36c-184.19613,0 -277.56451,32.42666 -277.56451,96.21333c0,63.232 93.41073,95.27467 277.56451,95.27467c14.05818,0 27.947,-0.17067 41.5394,-0.55467c16.34476,0.128 30.91108,12.84267 31.41921,29.73867a-30.3606,30.592 0 0 0 -29.64076,31.488l-0.04235,0z"/>
 </g>
</svg>